<?xml version="1.0" standalone="no"?>
<!DOCTYPE svg PUBLIC "-//W3C//DTD SVG 20010904//EN"
 "http://www.w3.org/TR/2001/REC-SVG-20010904/DTD/svg10.dtd">
<svg version="1.0" xmlns="http://www.w3.org/2000/svg"
 width="1280.000000pt" height="1023.000000pt" viewBox="0 0 1280.000000 1023.000000"
 preserveAspectRatio="xMidYMid meet">
<metadata>
Created by potrace 1.15, written by Peter Selinger 2001-2017
</metadata>
<g transform="translate(0.000000,1023.000000) scale(0.100000,-0.100000)"
fill="#000000" stroke="none">
<path d="M6545 10216 c-124 -31 -232 -119 -287 -235 -41 -86 -51 -217 -22
-307 39 -124 138 -231 254 -275 30 -11 64 -29 75 -39 11 -10 42 -29 70 -43
l49 -25 -53 -7 c-79 -11 -181 -66 -240 -130 -127 -140 -153 -322 -69 -488 36
-72 118 -155 182 -187 l46 -22 0 -534 0 -534 -323 0 c-178 0 -385 -3 -460 -7
l-137 -6 0 431 0 431 -37 10 c-21 6 -49 12 -63 13 -21 3 -26 9 -28 38 -3 34
-1 37 48 57 41 17 51 27 56 51 5 23 16 34 56 53 71 33 154 119 190 194 102
220 17 465 -200 572 -74 37 -79 38 -187 38 -108 0 -113 -1 -186 -37 -40 -20
-89 -52 -107 -71 -26 -27 -38 -33 -62 -29 -23 3 -30 9 -30 27 0 17 12 29 48
46 35 18 49 32 56 55 7 23 22 37 63 59 29 15 76 52 103 81 230 253 93 651
-248 715 -224 42 -456 -128 -492 -361 -29 -191 84 -391 260 -460 19 -8 39 -20
43 -27 5 -7 35 -27 68 -43 52 -27 59 -34 59 -59 0 -25 -5 -30 -32 -36 -18 -3
-45 -11 -60 -17 l-28 -10 0 -877 0 -877 -177 -13 c-98 -7 -253 -21 -345 -30
l-168 -17 0 568 c0 639 8 580 -79 594 -38 6 -41 9 -41 40 0 28 4 34 34 44 18
6 42 20 52 31 10 11 42 32 70 45 140 66 244 229 244 381 0 111 -49 228 -128
307 -94 94 -189 130 -326 124 -89 -4 -108 -10 -218 -66 -5 -2 -8 28 -8 67 0
250 -238 450 -490 411 -183 -29 -329 -174 -361 -359 -40 -224 134 -461 356
-489 51 -6 60 -10 63 -28 3 -18 -4 -22 -39 -28 -23 -4 -50 -11 -60 -17 -18 -9
-19 -39 -19 -888 l0 -878 -187 -46 c-463 -114 -708 -231 -776 -371 -64 -129
-95 -318 -104 -618 l-6 -196 -61 -43 c-195 -137 -240 -252 -150 -384 14 -20
24 -38 22 -39 -2 -2 -43 -17 -93 -36 -49 -18 -130 -53 -180 -78 -232 -115
-306 -209 -354 -449 -37 -190 -46 -314 -45 -686 l0 -357 -35 -9 c-20 -5 -82
-22 -138 -37 -56 -14 -108 -24 -116 -21 -30 11 -66 109 -77 207 -13 120 -30
198 -40 179 -4 -8 -11 -36 -14 -64 -13 -93 -38 -199 -52 -228 -25 -47 -83
-105 -153 -151 -36 -25 -90 -65 -118 -89 -29 -25 -85 -62 -125 -82 -181 -90
-309 -214 -362 -352 -34 -87 -72 -276 -92 -451 -21 -190 -30 -788 -15 -1007
33 -474 92 -688 226 -821 144 -145 411 -271 825 -389 530 -152 1386 -300 2135
-370 94 -9 211 -20 260 -25 377 -41 1041 -82 1780 -112 411 -17 1930 -16 2335
0 1552 64 2614 171 3550 358 856 170 1372 384 1518 627 65 107 113 307 144
587 17 166 18 938 0 1100 -34 309 -83 504 -153 609 -74 112 -203 204 -420 300
-104 46 -382 144 -485 170 -38 10 -42 14 -46 48 -3 22 2 49 14 72 36 70 16
188 -48 282 -40 57 -66 82 -135 131 -54 37 -59 52 -59 188 0 174 -47 469 -89
565 -63 144 -197 243 -461 345 l-95 37 -32 61 c-19 38 -34 85 -38 120 -11 100
-27 192 -34 196 -4 3 -15 -45 -25 -107 -19 -124 -49 -207 -75 -207 -37 1 -42
13 -31 86 18 112 24 542 11 694 -20 225 -63 404 -117 482 -33 46 -150 128
-251 174 -120 55 -319 117 -533 167 -107 25 -212 48 -232 52 l-38 6 0 754 0
754 -30 16 c-16 8 -43 15 -60 15 -29 0 -30 2 -30 43 0 42 1 44 40 56 45 13 70
43 70 82 0 20 7 30 30 39 17 7 54 36 83 64 215 213 159 560 -111 693 -74 37
-79 38 -186 38 -104 0 -115 -2 -178 -32 -253 -119 -331 -444 -159 -658 43 -53
120 -109 178 -131 27 -9 57 -25 68 -35 11 -9 44 -29 73 -43 51 -26 52 -27 52
-70 l0 -43 -51 -6 c-28 -4 -57 -12 -65 -18 -12 -10 -14 -128 -14 -734 0 -397
-2 -724 -5 -726 -2 -3 -78 5 -167 18 -90 12 -251 32 -358 43 -107 11 -210 23
-227 26 l-33 5 0 646 0 645 30 35 c65 74 102 176 102 284 0 89 -23 164 -72
235 l-39 59 21 15 c155 106 220 219 220 380 1 293 -274 497 -553 410 -184 -57
-301 -217 -301 -411 0 -90 23 -163 74 -240 24 -36 37 -64 31 -66 -31 -11 -107
-70 -138 -107 -172 -210 -109 -536 126 -656 23 -12 50 -30 61 -39 10 -10 41
-28 69 -41 48 -23 50 -26 47 -59 -3 -34 -6 -36 -43 -42 -22 -3 -50 -11 -62
-17 l-23 -13 0 -492 0 -492 -107 7 c-60 3 -232 11 -383 17 -151 7 -330 14
-398 17 l-124 6 8 423 7 423 -22 13 c-18 12 -21 23 -21 80 0 101 7 126 42 140
96 39 193 148 228 255 33 98 26 224 -17 317 -57 121 -186 221 -313 242 -44 8
-44 8 -18 19 42 18 68 47 68 77 0 22 9 32 44 53 57 33 128 113 161 180 157
322 -141 688 -490 602z m264 -116 c184 -98 237 -331 114 -504 -30 -42 -105
-106 -125 -106 -29 0 -108 235 -108 321 0 17 -4 28 -8 25 -4 -2 -35 -85 -67
-183 -33 -98 -61 -180 -62 -182 -5 -7 -72 26 -115 56 -85 58 -147 201 -133
308 15 121 107 240 218 285 41 16 70 19 137 17 74 -3 93 -7 149 -37z m-1637
-98 c55 -24 121 -82 154 -133 101 -160 48 -377 -116 -478 l-48 -30 -30 57
c-47 89 -81 207 -83 290 l0 37 -20 -44 c-11 -25 -41 -108 -66 -185 -25 -78
-48 -143 -50 -146 -9 -10 -96 45 -129 83 -169 187 -90 485 149 563 59 19 180
12 239 -14z m3125 -74 c70 -26 145 -98 180 -173 24 -51 28 -73 28 -145 0 -101
-27 -169 -93 -237 -53 -54 -121 -90 -134 -71 -51 75 -93 189 -109 300 l-13 81
-16 -39 c-10 -21 -36 -96 -60 -166 l-42 -128 -48 0 c-45 0 -51 3 -89 47 -112
126 -102 333 21 455 100 101 236 128 375 76z m-4743 -217 c35 -17 81 -50 101
-72 119 -132 122 -330 6 -462 -31 -34 -99 -84 -105 -76 -1 2 -26 51 -54 109
-54 110 -92 235 -92 304 0 24 -4 36 -9 31 -15 -16 -107 -293 -126 -377 l-17
-78 -30 18 c-46 26 -117 107 -141 160 -17 37 -22 66 -22 137 0 78 4 98 28 146
44 91 132 163 232 190 61 17 161 4 229 -30z m5812 -111 c73 -35 126 -91 163
-169 35 -75 37 -201 4 -273 -24 -53 -95 -134 -142 -161 l-30 -18 -31 62 c-36
70 -70 194 -70 253 0 64 -16 34 -81 -155 -64 -187 -61 -184 -122 -152 -118 60
-197 206 -183 336 16 152 128 277 275 308 63 13 151 1 217 -31z m-5143 -297
c74 -33 148 -112 177 -191 31 -80 25 -195 -14 -270 -32 -63 -90 -123 -145
-151 l-40 -21 -31 55 c-42 73 -80 187 -87 263 -3 34 -9 65 -13 67 -7 5 -77
-187 -116 -317 -10 -32 -20 -58 -23 -58 -19 0 -111 83 -138 124 -129 192 -28
459 197 521 72 19 158 11 233 -22z m3860 -133 c65 -33 67 -35 67 -72 0 -33 -3
-38 -24 -38 -12 0 -37 -5 -55 -11 l-31 -11 0 -91 c0 -63 -3 -87 -10 -77 -5 8
-10 36 -10 63 0 26 -4 47 -8 47 -5 0 -37 -83 -71 -185 l-63 -185 -30 18 c-45
26 -97 88 -127 151 -22 47 -26 70 -26 141 0 72 4 93 27 141 34 68 95 132 156
163 l46 23 45 -22 c25 -11 76 -37 114 -55z m-2467 -20 c73 -35 126 -91 163
-169 22 -47 26 -70 26 -141 0 -73 -4 -93 -28 -142 -31 -62 -117 -149 -166
-166 -28 -10 -30 -9 -59 46 -38 72 -69 172 -78 253 -6 57 -8 60 -19 38 -7 -13
-36 -95 -66 -181 -29 -87 -57 -158 -63 -158 -6 0 -32 14 -57 32 l-47 32 -7
113 c-4 63 -4 174 0 249 l7 135 32 23 c109 82 240 95 362 36z m1293 -15 c88
-60 150 -200 136 -310 -12 -100 -90 -220 -172 -264 -18 -9 -22 -7 -27 12 -3
12 -6 133 -6 268 0 238 6 349 19 332 3 -4 26 -21 50 -38z m-359 -262 c0 -159
-4 -294 -8 -300 -12 -19 -84 37 -122 95 -71 108 -79 240 -20 351 33 61 110
141 136 141 12 0 14 -52 14 -287z m1767 239 c64 -96 79 -227 36 -319 l-18 -38
-3 142 -3 142 -37 11 c-20 5 -50 11 -67 12 -26 3 -30 8 -33 34 -3 29 0 33 40
47 24 8 45 15 48 16 3 0 19 -20 37 -47z m-4629 -296 c51 -109 115 -167 259
-236 122 -59 123 -60 123 -93 0 -33 -2 -35 -45 -41 -94 -12 -85 51 -85 -611
l0 -584 -32 -6 c-89 -15 -303 -45 -321 -45 -19 0 -19 10 -16 853 l4 852 -35
12 c-19 7 -50 12 -67 12 -28 1 -33 5 -33 26 0 20 5 25 23 25 31 0 131 34 160
55 l22 15 6 -83 c4 -65 13 -99 37 -151z m1587 -356 c27 -14 57 -33 65 -42 8
-9 39 -29 68 -43 51 -26 52 -28 52 -71 0 -43 0 -44 -35 -44 -19 0 -46 -5 -60
-12 l-25 -11 0 -432 0 -432 -46 -7 c-94 -12 -84 -80 -84 560 0 311 3 564 8
562 4 -2 29 -15 57 -28z m6355 -4650 c0 -5 -5 -10 -11 -10 -5 0 -7 5 -4 10 3
6 8 10 11 10 2 0 4 -4 4 -10z"/>
</g>
</svg>
